<svg xmlns="http://www.w3.org/2000/svg" style="display: none;">
<symbol id="cart" viewBox="0 0 35 31">
<path fill-rule="evenodd" clip-rule="evenodd" d="M14.94 1.47004C15.2382 1.11222 15.6082 0.820877 16.026 0.614822C16.4438 0.408766 16.9001 0.292569 17.3656 0.273725C17.831 0.25488 18.2953 0.333807 18.7283 0.505414C19.1614 0.677021 19.5537 0.937498 19.88 1.27004L20.06 1.47004L26.6133 9.33338H31.5883C31.938 9.33263 32.284 9.40578 32.6036 9.54804C32.9231 9.69029 33.209 9.89843 33.4425 10.1588C33.676 10.4192 33.8518 10.726 33.9585 11.0591C34.0652 11.3922 34.1004 11.7441 34.0616 12.0917L33.9083 13.3684L33.7416 14.6017L33.605 15.525L33.4466 16.5167L33.2666 17.5584L33.0633 18.6384L32.8366 19.74C32.7166 20.2956 32.5877 20.8506 32.45 21.405C32.081 22.8684 31.6178 24.3064 31.0633 25.71L30.695 26.61L30.3383 27.4234L30.0016 28.1467L29.845 28.47L29.43 29.2867C28.8966 30.3034 27.89 30.9034 26.825 30.99L26.5583 31H8.42495C7.84229 31.0044 7.26938 30.8504 6.76742 30.5545C6.26546 30.2586 5.8533 29.8319 5.57495 29.32L5.18829 28.57L4.88829 27.9534L4.72995 27.6117L4.39662 26.8634C3.63545 25.0959 3.0179 23.27 2.54995 21.4034C2.45947 21.041 2.3728 20.6776 2.28995 20.3134L2.05329 19.2334L1.84162 18.1767L1.65495 17.155L1.48829 16.1767L1.34329 15.2534L1.21995 14.3984L1.06995 13.26L0.959954 12.3334L0.931621 12.0784C0.897145 11.7509 0.928125 11.4199 1.02276 11.1046C1.11739 10.7892 1.27379 10.4958 1.48286 10.2415C1.69192 9.98712 1.94948 9.77688 2.24054 9.62299C2.53161 9.46909 2.85037 9.37461 3.17829 9.34504L3.40495 9.33338H8.38662L14.94 1.47004ZM14.1016 17.2034C13.9889 16.8101 13.7354 16.4721 13.3896 16.2536C13.0437 16.0352 12.6296 15.9515 12.226 16.0186C11.8225 16.0858 11.4577 16.299 11.2012 16.6176C10.9447 16.9363 10.8143 17.3381 10.835 17.7467L10.8566 17.94L11.69 22.94L11.7316 23.13C11.8444 23.5233 12.0978 23.8613 12.4437 24.0798C12.7895 24.2983 13.2037 24.3819 13.6072 24.3148C14.0107 24.2477 14.3755 24.0345 14.632 23.7158C14.8885 23.3971 15.0189 22.9953 14.9983 22.5867L14.9766 22.3934L14.1433 17.3934L14.1016 17.2034ZM22.7733 16.0234C22.3705 15.9562 21.957 16.0392 21.6114 16.2568C21.2657 16.4743 21.012 16.8111 20.8983 17.2034L20.8566 17.3934L20.0233 22.3934C19.9537 22.8127 20.047 23.2428 20.284 23.5956C20.5211 23.9484 20.884 24.1974 21.2985 24.2915C21.713 24.3856 22.1478 24.3177 22.514 24.1018C22.8801 23.8859 23.15 23.5383 23.2683 23.13L23.31 22.94L24.1433 17.94C24.2156 17.5042 24.1119 17.0576 23.855 16.6982C23.5981 16.3388 23.209 16.0961 22.7733 16.0234ZM17.5 3.60338L12.725 9.33338H22.275L17.5 3.60338Z" fill="#7FA8FF"/>
</symbol>
</svg>
