<svg width="40" height="40" viewBox="0 0 40 40" fill="none" xmlns="http://www.w3.org/2000/svg">
<symbol id="burger" viewBox="0 0 35 31">
<path d="M11.6667 15.0003V11.667H35V15.0003H11.6667ZM11.6667 21.667V18.3337H35V21.667H11.6667ZM11.6667 28.3337V25.0003H35V28.3337H11.6667ZM6.66667 15.0003C6.19444 15.0003 5.79861 14.8406 5.47917 14.5212C5.15972 14.2017 5 13.8059 5 13.3337C5 12.8614 5.15972 12.4656 5.47917 12.1462C5.79861 11.8267 6.19444 11.667 6.66667 11.667C7.13889 11.667 7.53472 11.8267 7.85417 12.1462C8.17361 12.4656 8.33333 12.8614 8.33333 13.3337C8.33333 13.8059 8.17361 14.2017 7.85417 14.5212C7.53472 14.8406 7.13889 15.0003 6.66667 15.0003ZM6.66667 21.667C6.19444 21.667 5.79861 21.5073 5.47917 21.1878C5.15972 20.8684 5 20.4725 5 20.0003C5 19.5281 5.15972 19.1323 5.47917 18.8128C5.79861 18.4934 6.19444 18.3337 6.66667 18.3337C7.13889 18.3337 7.53472 18.4934 7.85417 18.8128C8.17361 19.1323 8.33333 19.5281 8.33333 20.0003C8.33333 20.4725 8.17361 20.8684 7.85417 21.1878C7.53472 21.5073 7.13889 21.667 6.66667 21.667ZM6.66667 28.3337C6.19444 28.3337 5.79861 28.1739 5.47917 27.8545C5.15972 27.535 5 27.1392 5 26.667C5 26.1948 5.15972 25.7989 5.47917 25.4795C5.79861 25.16 6.19444 25.0003 6.66667 25.0003C7.13889 25.0003 7.53472 25.16 7.85417 25.4795C8.17361 25.7989 8.33333 26.1948 8.33333 26.667C8.33333 27.1392 8.17361 27.535 7.85417 27.8545C7.53472 28.1739 7.13889 28.3337 6.66667 28.3337Z" fill="#F8F9FA"/>
<symbol/>
<symbol id="cart" viewBox="0 0 35 31">
<path fill-rule="evenodd" clip-rule="evenodd" d="M14.452 4.37623C14.6906 4.08997 14.9865 3.8569 15.3208 3.69205C15.655 3.52721 16.0201 3.43425 16.3925 3.41918C16.7648 3.4041 17.1362 3.46724 17.4827 3.60453C17.8291 3.74181 18.143 3.95019 18.404 4.21623L18.548 4.37623L23.7906 10.6669H27.7706C28.0504 10.6663 28.3272 10.7248 28.5828 10.8386C28.8385 10.9524 29.0672 11.1189 29.254 11.3273C29.4408 11.5356 29.5815 11.781 29.6668 12.0475C29.7522 12.314 29.7803 12.5955 29.7493 12.8736L29.6266 13.8949L29.4933 14.8816L29.384 15.6202L29.2573 16.4136L29.1133 17.2469L28.9506 18.1109L28.7693 18.9922C28.6733 19.4367 28.5702 19.8807 28.46 20.3242C28.1648 21.4949 27.7943 22.6453 27.3506 23.7682L27.056 24.4882L26.7706 25.1389L26.5013 25.7176L26.376 25.9762L26.044 26.6296C25.6173 27.4429 24.812 27.9229 23.96 27.9922L23.7466 28.0002H9.23996C8.77383 28.0037 8.3155 27.8805 7.91394 27.6438C7.51237 27.4071 7.18264 27.0658 6.95996 26.6562L6.65063 26.0562L6.41063 25.5629L6.28396 25.2896L6.0173 24.6909C5.40836 23.2769 4.91432 21.8162 4.53996 20.3229C4.46758 20.033 4.39824 19.7423 4.33196 19.4509L4.14263 18.5869L3.9733 17.7416L3.82396 16.9242L3.69063 16.1416L3.57463 15.4029L3.47596 14.7189L3.35596 13.8082L3.26796 13.0669L3.2453 12.8629C3.21772 12.6009 3.2425 12.3361 3.31821 12.0838C3.39391 11.8316 3.51903 11.5969 3.68629 11.3934C3.85354 11.1899 4.05958 11.0217 4.29244 10.8986C4.52529 10.7755 4.7803 10.6999 5.04263 10.6762L5.22396 10.6669H9.2093L14.452 4.37623ZM13.7813 16.9629C13.6911 16.6483 13.4884 16.3779 13.2117 16.2031C12.935 16.0283 12.6037 15.9614 12.2808 16.0151C11.958 16.0688 11.6662 16.2394 11.461 16.4943C11.2558 16.7492 11.1515 17.0707 11.168 17.3976L11.1853 17.5522L11.852 21.5522L11.8853 21.7042C11.9755 22.0188 12.1782 22.2893 12.4549 22.464C12.7316 22.6388 13.0629 22.7057 13.3858 22.652C13.7086 22.5983 14.0004 22.4278 14.2056 22.1728C14.4108 21.9179 14.5151 21.5964 14.4986 21.2696L14.4813 21.1149L13.8146 17.1149L13.7813 16.9629ZM20.7186 16.0189C20.3964 15.9651 20.0656 16.0316 19.7891 16.2056C19.5126 16.3796 19.3096 16.6491 19.2186 16.9629L19.1853 17.1149L18.5186 21.1149C18.463 21.4504 18.5376 21.7944 18.7272 22.0767C18.9169 22.3589 19.2072 22.5581 19.5388 22.6334C19.8704 22.7086 20.2183 22.6544 20.5112 22.4817C20.8041 22.309 21.02 22.0308 21.1146 21.7042L21.148 21.5522L21.8146 17.5522C21.8725 17.2036 21.7895 16.8462 21.584 16.5587C21.3785 16.2712 21.0672 16.077 20.7186 16.0189ZM16.5 6.0829L12.68 10.6669H20.32L16.5 6.0829Z" fill="#F8F9FA"/>
</symbol>
<symbol id="close" viewBox="0 0 35 31">
<path d="M8.53341 25.3337L6.66675 23.467L14.1334 16.0003L6.66675 8.53366L8.53341 6.66699L16.0001 14.1337L23.4667 6.66699L25.3334 8.53366L17.8667 16.0003L25.3334 23.467L23.4667 25.3337L16.0001 17.867L8.53341 25.3337Z" fill="#F8F9FA"/>
</symbol>
<symbol id="dropdown" viewBox="0 0 35 31">
<path d="M10 12.8337L5 7.83366L6.16667 6.66699L10 10.5003L13.8333 6.66699L15 7.83366L10 12.8337Z" fill="#F8F9FA"/>
</symbol>
<symbol id="location" viewBox="0 0 35 31">
<path d="M10.0001 18.3337C9.80564 18.3337 9.63897 18.2781 9.50008 18.167C9.36119 18.0559 9.25703 17.91 9.18758 17.7295C8.92369 16.9517 8.59036 16.2225 8.18758 15.542C7.79869 14.8614 7.25008 14.0628 6.54175 13.1462C5.83342 12.2295 5.25703 11.3545 4.81258 10.5212C4.38203 9.68783 4.16675 8.68088 4.16675 7.50032C4.16675 5.87532 4.72925 4.50032 5.85425 3.37532C6.99314 2.23644 8.37508 1.66699 10.0001 1.66699C11.6251 1.66699 13.0001 2.23644 14.1251 3.37532C15.264 4.50032 15.8334 5.87532 15.8334 7.50032C15.8334 8.76421 15.5904 9.81977 15.1042 10.667C14.632 11.5003 14.0834 12.3267 13.4584 13.1462C12.7084 14.1462 12.139 14.9795 11.7501 15.6462C11.3751 16.2989 11.0626 16.9934 10.8126 17.7295C10.7431 17.9239 10.632 18.0767 10.4792 18.1878C10.3404 18.285 10.1806 18.3337 10.0001 18.3337ZM10.0001 15.3545C10.2362 14.8823 10.5001 14.417 10.7917 13.9587C11.0973 13.5003 11.5417 12.8892 12.1251 12.1253C12.7223 11.3475 13.2084 10.6323 13.5834 9.97949C13.9723 9.31282 14.1667 8.48644 14.1667 7.50032C14.1667 6.34755 13.757 5.36838 12.9376 4.56283C12.132 3.74338 11.1529 3.33366 10.0001 3.33366C8.8473 3.33366 7.86119 3.74338 7.04175 4.56283C6.23619 5.36838 5.83342 6.34755 5.83342 7.50032C5.83342 8.48644 6.02092 9.31282 6.39591 9.97949C6.7848 10.6323 7.27786 11.3475 7.87508 12.1253C8.45842 12.8892 8.89592 13.5003 9.18758 13.9587C9.49314 14.417 9.76397 14.8823 10.0001 15.3545ZM10.0001 9.58366C10.5834 9.58366 11.0765 9.38227 11.4792 8.97949C11.882 8.57671 12.0834 8.08366 12.0834 7.50032C12.0834 6.91699 11.882 6.42394 11.4792 6.02116C11.0765 5.61838 10.5834 5.41699 10.0001 5.41699C9.41675 5.41699 8.92369 5.61838 8.52092 6.02116C8.11814 6.42394 7.91675 6.91699 7.91675 7.50032C7.91675 8.08366 8.11814 8.57671 8.52092 8.97949C8.92369 9.38227 9.41675 9.58366 10.0001 9.58366Z" fill="#F8F9FA"/>
</symbol>
<symbol id="search" viewBox="0 0 35 31">
<path d="M26.1333 28L17.7333 19.6C17.0667 20.1333 16.3 20.5556 15.4333 20.8667C14.5667 21.1778 13.6444 21.3333 12.6667 21.3333C10.2444 21.3333 8.19467 20.4942 6.51733 18.816C4.84 17.1378 4.00089 15.088 4 12.6667C3.99911 10.2453 4.83822 8.19556 6.51733 6.51733C8.19645 4.83911 10.2462 4 12.6667 4C15.0871 4 17.1373 4.83911 18.8173 6.51733C20.4973 8.19556 21.336 10.2453 21.3333 12.6667C21.3333 13.6444 21.1778 14.5667 20.8667 15.4333C20.5556 16.3 20.1333 17.0667 19.6 17.7333L28 26.1333L26.1333 28ZM12.6667 18.6667C14.3333 18.6667 15.7502 18.0836 16.9173 16.9173C18.0844 15.7511 18.6676 14.3342 18.6667 12.6667C18.6658 10.9991 18.0827 9.58267 16.9173 8.41733C15.752 7.252 14.3351 6.66844 12.6667 6.66667C10.9982 6.66489 9.58178 7.24844 8.41733 8.41733C7.25289 9.58622 6.66933 11.0027 6.66667 12.6667C6.664 14.3307 7.24756 15.7476 8.41733 16.9173C9.58711 18.0871 11.0036 18.6702 12.6667 18.6667Z" fill="#F8F9FA"/>
</symbol>
<symbol id="user" viewBox="0 0 35 31">
<path d="M16.4997 15.9997C15.033 15.9997 13.7775 15.4775 12.733 14.433C11.6886 13.3886 11.1663 12.133 11.1663 10.6663C11.1663 9.19967 11.6886 7.94412 12.733 6.89967C13.7775 5.85523 15.033 5.33301 16.4997 5.33301C17.9663 5.33301 19.2219 5.85523 20.2663 6.89967C21.3108 7.94412 21.833 9.19967 21.833 10.6663C21.833 12.133 21.3108 13.3886 20.2663 14.433C19.2219 15.4775 17.9663 15.9997 16.4997 15.9997ZM5.83301 26.6663V22.933C5.83301 22.1775 6.02767 21.4832 6.41701 20.8503C6.80634 20.2175 7.32279 19.7339 7.96634 19.3997C9.34412 18.7108 10.7441 18.1943 12.1663 17.8503C13.5886 17.5063 15.033 17.3339 16.4997 17.333C17.9663 17.3321 19.4108 17.5046 20.833 17.8503C22.2552 18.1961 23.6552 18.7126 25.033 19.3997C25.6775 19.733 26.1943 20.2166 26.5837 20.8503C26.973 21.4841 27.1672 22.1783 27.1663 22.933V26.6663H5.83301Z" fill="#F8F9FA"/>
</symbol>
</svg>
