<svg width="60" height="60" viewBox="0 0 60 60" fill="none" xmlns="http://www.w3.org/2000/svg">
<g clip-path="url(#clip0_161_5935)">
<path d="M43.6364 15C42.8182 15 42.2728 15.5455 42.2728 16.3636V19.0909C42.2728 19.9091 42.8183 20.4545 43.6364 20.4545C44.4545 20.4545 45 19.9091 45 19.0909V16.3636C45 15.5455 44.4545 15 43.6364 15Z" fill="black"/>
<path d="M43.6364 28.6364C42.8182 28.6364 42.2728 29.1819 42.2728 30V35.4545C42.2728 36.2727 42.8183 36.8181 43.6364 36.8181C44.4545 36.8181 45 36.2727 45 35.4545V30C45 29.1818 44.4545 28.6364 43.6364 28.6364Z" fill="black"/>
<path d="M49.0909 20.4545C49.9091 20.4545 50.4545 19.909 50.4545 19.0909V4.0909C50.4545 1.7727 48.6818 0 46.3636 0H13.6364C11.3182 0 9.54553 1.7727 9.54553 4.0909V24.5454C9.54553 25.3636 10.091 25.909 10.9091 25.909H47.7273V51.8181C47.7273 52.6363 47.1818 53.1817 46.3637 53.1817H13.6364C12.8182 53.1817 12.2728 52.6362 12.2728 51.8181V30C12.2728 29.1818 11.7273 28.6364 10.9092 28.6364C10.091 28.6364 9.54565 29.1819 9.54565 30V51.8182C9.54565 54.1364 11.3183 55.9091 13.6365 55.9091V58.6364C13.6365 59.4546 14.1821 60 15.0001 60H39.5456C40.3639 60 40.9092 59.4545 40.9092 58.6364C40.9092 57.8183 40.3637 57.2728 39.5456 57.2728H16.3636V55.9092H43.6363V58.6365C43.6363 59.4547 44.1818 60.0001 44.9999 60.0001C45.818 60.0001 46.3635 59.4546 46.3635 58.6365V55.9092C48.6817 55.9092 50.4544 54.1365 50.4544 51.8183V24.5455C50.4544 23.7273 49.9089 23.1819 49.0908 23.1819H12.2727V4.0909C12.2727 3.2727 12.8182 2.7273 13.6363 2.7273H46.3636C47.1818 2.7273 47.7272 3.27281 47.7272 4.0909V19.0909C47.7273 19.9091 48.2727 20.4545 49.0909 20.4545Z" fill="black"/>
</g>
<defs>
<clipPath id="clip0_161_5935">
<rect width="60" height="60" fill="white"/>
</clipPath>
</defs>
</svg>
