<svg width="96" height="96" viewBox="0 0 96 96" fill="none" xmlns="http://www.w3.org/2000/svg">
<g clip-path="url(#clip0_234_2283)">
<path d="M48 45.3335H40V50.6668H48V45.3335Z" fill="#060960"/>
<path d="M70.5334 37.7865C65.8039 30.0473 59.352 23.5041 51.68 18.6665C48.1358 16.4202 44.0955 15.0756 39.912 14.7503C35.7285 14.4249 31.529 15.1285 27.68 16.7998C24.3134 18.3878 21.3839 20.7715 19.1445 23.7449C16.9051 26.7183 15.4232 30.1922 14.8267 33.8665C14.6134 35.1198 14.4534 36.3198 14.2934 37.4931C11.7967 37.8978 9.52505 39.1765 7.88386 41.101C6.24267 43.0255 5.33873 45.4705 5.33337 47.9998V64.3465C5.33337 65.7609 5.89528 67.1175 6.89547 68.1177C7.89566 69.1179 9.25222 69.6798 10.6667 69.6798V53.3331V47.9998C10.6667 46.5853 11.2286 45.2288 12.2288 44.2286C13.229 43.2284 14.5856 42.6665 16 42.6665H65.9467C71.0862 42.6735 76.0132 44.7183 79.6474 48.3525C83.2815 51.9867 85.3263 56.9136 85.3334 62.0531V63.9998H80C78.8738 61.2534 76.7758 59.0179 74.1064 57.7197C71.437 56.4216 68.3831 56.1517 65.5274 56.9616C62.6717 57.7715 60.2141 59.6044 58.6237 62.1107C57.0332 64.617 56.4213 67.6211 56.9045 70.5498C57.3877 73.4785 58.9324 76.1268 61.2437 77.9893C63.5549 79.8518 66.4711 80.7981 69.4356 80.6477C72.4001 80.4973 75.2054 79.2606 77.3163 77.1737C79.4272 75.0868 80.6958 72.2957 80.88 69.3331H85.3334C86.7479 69.3331 88.1044 68.7712 89.1046 67.771C90.1048 66.7708 90.6667 65.4143 90.6667 63.9998V62.0531C90.656 56.2983 88.6399 50.7271 84.9653 46.2981C81.2907 41.8691 76.1874 38.8593 70.5334 37.7865ZM29.3334 37.3331H18.48C18.48 36.5065 18.72 35.6531 18.88 34.6665C19.3408 31.737 20.5431 28.9741 22.3727 26.6404C24.2024 24.3066 26.5985 22.4797 29.3334 21.3331V37.3331ZM34.6667 37.3331V20.2131C39.6452 19.5666 44.6943 20.6593 48.96 23.3065C54.7833 26.9336 59.8094 31.7056 63.7334 37.3331H34.6667ZM68.8 75.6798C67.4815 75.6798 66.1926 75.2888 65.0962 74.5563C63.9999 73.8237 63.1454 72.7825 62.6408 71.5643C62.1363 70.3462 62.0042 69.0057 62.2615 67.7125C62.5187 66.4193 63.1536 65.2314 64.086 64.2991C65.0183 63.3667 66.2062 62.7318 67.4994 62.4746C68.7926 62.2173 70.1331 62.3493 71.3513 62.8539C72.5694 63.3585 73.6106 64.213 74.3432 65.3093C75.0757 66.4057 75.4667 67.6946 75.4667 69.0131C75.4667 70.7812 74.7643 72.4769 73.5141 73.7272C72.2638 74.9774 70.5681 75.6798 68.8 75.6798Z" fill="black"/>
<path d="M37.7866 64C36.6604 61.2536 34.5624 59.0181 31.893 57.7199C29.2236 56.4218 26.1697 56.1519 23.314 56.9618C20.4583 57.7717 18.0007 59.6046 16.4103 62.1109C14.8198 64.6172 14.2079 67.6213 14.6911 70.55C15.1743 73.4788 16.719 76.127 19.0303 77.9895C21.3415 79.852 24.2577 80.7983 27.2222 80.6479C30.1867 80.4975 32.992 79.2608 35.1029 77.1739C37.2138 75.087 38.4824 72.2959 38.6666 69.3333H52.8C52.8 69.12 52.8 68.88 52.8 68.6667C52.7472 67.0934 52.9269 65.5209 53.3333 64H37.7866ZM26.6666 75.68C25.3481 75.68 24.0592 75.289 22.9628 74.5565C21.8665 73.8239 21.012 72.7827 20.5074 71.5646C20.0029 70.3464 19.8708 69.0059 20.1281 67.7127C20.3853 66.4195 21.0202 65.2316 21.9526 64.2993C22.8849 63.3669 24.0728 62.732 25.366 62.4748C26.6592 62.2175 27.9997 62.3496 29.2179 62.8541C30.436 63.3587 31.4772 64.2132 32.2098 65.3095C32.9423 66.4059 33.3333 67.6948 33.3333 69.0133C33.3333 70.7815 32.6309 72.4771 31.3807 73.7274C30.1304 74.9776 28.4348 75.68 26.6666 75.68Z" fill="black"/>
</g>
<defs>
<clipPath id="clip0_234_2283">
<rect width="96" height="96" fill="white"/>
</clipPath>
</defs>
</svg>
