<svg width="64" height="64" viewBox="0 0 64 64" fill="none" xmlns="http://www.w3.org/2000/svg">
<path d="M32 12C31.1725 11.9999 30.3654 12.2565 29.6899 12.7343C29.0143 13.2122 28.5036 13.8878 28.228 14.668C28.0386 15.1512 27.6687 15.5419 27.1965 15.7575C26.7243 15.973 26.1868 15.9965 25.6976 15.8231C25.2084 15.6496 24.8058 15.2928 24.5748 14.8279C24.3439 14.3631 24.3027 13.8266 24.46 13.332C24.8669 12.1828 25.531 11.1418 26.4017 10.2885C27.2723 9.43515 28.3265 8.7921 29.4836 8.40844C30.6408 8.02478 31.8703 7.91064 33.0783 8.07477C34.2863 8.23889 35.4408 8.67692 36.4537 9.3554C37.4665 10.0339 38.3109 10.9349 38.9224 11.9895C39.5338 13.0442 39.8961 14.2247 39.9816 15.4408C40.0671 16.6569 39.8736 17.8764 39.4158 19.0063C38.9579 20.1362 38.2479 21.1464 37.34 21.96L37.176 22.108C36.296 22.896 35.5 23.604 34.896 24.372C34.256 25.164 34.004 25.808 34.004 26.384C34.004 27.26 34.484 28.064 35.256 28.48L56.64 40C57.8892 40.6752 58.8776 41.7477 59.4488 43.0477C60.0201 44.3477 60.1416 45.8011 59.7942 47.1779C59.4468 48.5548 58.6502 49.7765 57.5306 50.6498C56.4109 51.5232 55.032 51.9983 53.612 52H10.38C8.95888 52 7.57842 51.5255 6.45758 50.6518C5.33675 49.7781 4.5397 48.5552 4.19287 47.1771C3.84603 45.7989 3.96926 44.3444 4.543 43.0442C5.11675 41.7441 6.10816 40.6727 7.36001 40L25.052 30.48C25.517 30.2475 26.0543 30.2052 26.55 30.362C27.0456 30.5189 27.4607 30.8627 27.7073 31.3204C27.9538 31.7781 28.0125 32.3139 27.8707 32.8141C27.729 33.3143 27.398 33.7396 26.948 34L9.25201 43.52C8.78307 43.7701 8.41132 44.17 8.19602 44.6559C7.98072 45.1418 7.93425 45.6857 8.06402 46.2011C8.19378 46.7165 8.49232 47.1736 8.91205 47.4996C9.33178 47.8256 9.84855 48.0018 10.38 48H53.62C54.1496 47.9982 54.6636 47.8202 55.0808 47.4939C55.498 47.1676 55.7947 46.7117 55.924 46.1981C56.0533 45.6845 56.0079 45.1425 55.795 44.6575C55.582 44.1726 55.2137 43.7723 54.748 43.52L33.36 32C32.3464 31.4529 31.4993 30.6424 30.9079 29.6539C30.3165 28.6655 30.0029 27.5358 30 26.384C30 24.536 30.848 23.028 31.76 21.88C32.592 20.836 33.632 19.908 34.456 19.172L34.672 18.98C35.2756 18.4395 35.7009 17.7285 35.8915 16.941C36.0821 16.1535 36.0291 15.3266 35.7394 14.57C35.4497 13.8133 34.9371 13.1624 34.2694 12.7035C33.6016 12.2446 32.8102 11.9992 32 12Z" fill="black"/>
</svg>
