<svg width="64" height="64" viewBox="0 0 64 64" fill="none" xmlns="http://www.w3.org/2000/svg">
<path d="M57.6 2H40.4C39.2347 2.00526 38.1186 2.47052 37.2945 3.29454C36.4705 4.11857 36.0053 5.23467 36 6.4V10H7.2C5.8225 10.0053 4.50291 10.5548 3.52886 11.5289C2.55481 12.5029 2.00527 13.8225 2 15.2V44.8C2.00527 46.1775 2.55481 47.4971 3.52886 48.4711C4.50291 49.4452 5.8225 49.9947 7.2 50H20.48L19.4 58H17.72C17.1896 58 16.6809 58.2107 16.3058 58.5858C15.9307 58.9609 15.72 59.4696 15.72 60C15.72 60.5304 15.9307 61.0391 16.3058 61.4142C16.6809 61.7893 17.1896 62 17.72 62H38.28C38.8104 62 39.3191 61.7893 39.6942 61.4142C40.0693 61.0391 40.28 60.5304 40.28 60C40.28 59.4696 40.0693 58.9609 39.6942 58.5858C39.3191 58.2107 38.8104 58 38.28 58H36.56L35.2 50H48.8C50.1775 49.9947 51.4971 49.4452 52.4711 48.4711C53.4452 47.4971 53.9947 46.1775 54 44.8V15.2C53.9947 13.8225 53.4452 12.5029 52.4711 11.5289C51.4971 10.5548 50.1775 10.0053 48.8 10H40V6.4C40 6.29391 40.0421 6.19217 40.1172 6.11716C40.1922 6.04214 40.2939 6 40.4 6H57.6C57.7061 6 57.8078 6.04214 57.8828 6.11716C57.9579 6.19217 58 6.29391 58 6.4V53.6C58 53.7061 57.9579 53.8078 57.8828 53.8828C57.8078 53.9579 57.7061 54 57.6 54H42C41.4696 54 40.9609 54.2107 40.5858 54.5858C40.2107 54.9609 40 55.4696 40 56C40 56.5304 40.2107 57.0391 40.5858 57.4142C40.9609 57.7893 41.4696 58 42 58H57.6C58.7653 57.9947 59.8814 57.5295 60.7055 56.7055C61.5295 55.8814 61.9947 54.7653 62 53.6V6.4C61.9947 5.23467 61.5295 4.11857 60.7055 3.29454C59.8814 2.47052 58.7653 2.00526 57.6 2ZM32.5 58H23.44L24.52 50H31.16L32.5 58ZM50 15.2V44.8C50 44.9576 49.969 45.1136 49.9087 45.2592C49.8484 45.4048 49.76 45.5371 49.6485 45.6485C49.5371 45.76 49.4048 45.8484 49.2592 45.9087C49.1136 45.969 48.9576 46 48.8 46H7.2C6.88174 46 6.57652 45.8736 6.35147 45.6485C6.12643 45.4235 6 45.1183 6 44.8V15.2C6 14.8817 6.12643 14.5765 6.35147 14.3515C6.57652 14.1264 6.88174 14 7.2 14H48.8C48.9576 14 49.1136 14.031 49.2592 14.0913C49.4048 14.1517 49.5371 14.24 49.6485 14.3515C49.76 14.4629 49.8484 14.5952 49.9087 14.7408C49.969 14.8864 50 15.0424 50 15.2Z" fill="black"/>
</svg>
