<svg width="64" height="64" viewBox="0 0 64 64" fill="none" xmlns="http://www.w3.org/2000/svg">
<path d="M56 36C56.3054 35.9993 56.6067 35.9286 56.8805 35.7934C57.1544 35.6582 57.3937 35.462 57.58 35.22C57.77 34.9773 57.9014 34.694 57.9639 34.3922C58.0263 34.0903 58.0181 33.7782 57.94 33.48L49.94 3.48C49.8253 3.05382 49.5728 2.67757 49.2219 2.40987C48.871 2.14217 48.4414 1.99806 48 2H16C15.5485 1.98453 15.105 2.1224 14.7419 2.39114C14.3787 2.65989 14.1172 3.04367 14 3.48L6.00001 33.48C5.92188 33.7782 5.91372 34.0903 5.97617 34.3922C6.03862 34.694 6.16999 34.9773 6.36001 35.22C6.55243 35.4702 6.80134 35.6713 7.08638 35.8069C7.37142 35.9424 7.68449 36.0086 8.00001 36H22V44C21.4696 44 20.9609 44.2107 20.5858 44.5858C20.2107 44.9609 20 45.4696 20 46C20 46.5304 20.2107 47.0391 20.5858 47.4142C20.9609 47.7893 21.4696 48 22 48H26C26.5304 48 27.0392 47.7893 27.4142 47.4142C27.7893 47.0391 28 46.5304 28 46C28 45.4696 27.7893 44.9609 27.4142 44.5858C27.0392 44.2107 26.5304 44 26 44V36H30V52H26C23.8783 52 21.8434 52.8429 20.3432 54.3431C18.8429 55.8434 18 57.8783 18 60C18 60.5304 18.2107 61.0391 18.5858 61.4142C18.9609 61.7893 19.4696 62 20 62H44C44.5304 62 45.0392 61.7893 45.4142 61.4142C45.7893 61.0391 46 60.5304 46 60C46 57.8783 45.1572 55.8434 43.6569 54.3431C42.1566 52.8429 40.1217 52 38 52H34V36H56ZM41.46 58H22.54C22.8907 57.3925 23.395 56.888 24.0023 56.5369C24.6096 56.1859 25.2986 56.0007 26 56H38C38.7015 56.0007 39.3904 56.1859 39.9977 56.5369C40.605 56.888 41.1093 57.3925 41.46 58ZM17.54 6H46.46L51.26 24H12.74L17.54 6ZM11.68 28H52.32L53.4 32H10.6L11.68 28Z" fill="black"/>
</svg>
