<svg xmlns="http://www.w3.org/2000/svg" style="display: none;">
<symbol id="appliances" viewBox="0 0 60 60">
<g clip-path="url(#clip0_161_5935)">
<path d="M43.6364 15C42.8182 15 42.2728 15.5455 42.2728 16.3636V19.0909C42.2728 19.9091 42.8183 20.4545 43.6364 20.4545C44.4545 20.4545 45 19.9091 45 19.0909V16.3636C45 15.5455 44.4545 15 43.6364 15Z" fill="black"/>
<path d="M43.6364 28.6364C42.8182 28.6364 42.2728 29.1819 42.2728 30V35.4545C42.2728 36.2727 42.8183 36.8181 43.6364 36.8181C44.4545 36.8181 45 36.2727 45 35.4545V30C45 29.1818 44.4545 28.6364 43.6364 28.6364Z" fill="black"/>
<path d="M49.0909 20.4545C49.9091 20.4545 50.4545 19.909 50.4545 19.0909V4.0909C50.4545 1.7727 48.6818 0 46.3636 0H13.6364C11.3182 0 9.54553 1.7727 9.54553 4.0909V24.5454C9.54553 25.3636 10.091 25.909 10.9091 25.909H47.7273V51.8181C47.7273 52.6363 47.1818 53.1817 46.3637 53.1817H13.6364C12.8182 53.1817 12.2728 52.6362 12.2728 51.8181V30C12.2728 29.1818 11.7273 28.6364 10.9092 28.6364C10.091 28.6364 9.54565 29.1819 9.54565 30V51.8182C9.54565 54.1364 11.3183 55.9091 13.6365 55.9091V58.6364C13.6365 59.4546 14.1821 60 15.0001 60H39.5456C40.3639 60 40.9092 59.4545 40.9092 58.6364C40.9092 57.8183 40.3637 57.2728 39.5456 57.2728H16.3636V55.9092H43.6363V58.6365C43.6363 59.4547 44.1818 60.0001 44.9999 60.0001C45.818 60.0001 46.3635 59.4546 46.3635 58.6365V55.9092C48.6817 55.9092 50.4544 54.1365 50.4544 51.8183V24.5455C50.4544 23.7273 49.9089 23.1819 49.0908 23.1819H12.2727V4.0909C12.2727 3.2727 12.8182 2.7273 13.6363 2.7273H46.3636C47.1818 2.7273 47.7272 3.27281 47.7272 4.0909V19.0909C47.7273 19.9091 48.2727 20.4545 49.0909 20.4545Z" fill="black"/>
</g>
<defs>
<clipPath id="clip0_161_5935">
<rect width="60" height="60" fill="white"/>
</clipPath>
</defs>
</symbol>

<symbol id="auto" viewBox="0 0 96 96">
<g clip-path="url(#clip0_234_2283)">
<path d="M48 45.3335H40V50.6668H48V45.3335Z" fill="#060960"/>
<path d="M70.5334 37.7865C65.8039 30.0473 59.352 23.5041 51.68 18.6665C48.1358 16.4202 44.0955 15.0756 39.912 14.7503C35.7285 14.4249 31.529 15.1285 27.68 16.7998C24.3134 18.3878 21.3839 20.7715 19.1445 23.7449C16.9051 26.7183 15.4232 30.1922 14.8267 33.8665C14.6134 35.1198 14.4534 36.3198 14.2934 37.4931C11.7967 37.8978 9.52505 39.1765 7.88386 41.101C6.24267 43.0255 5.33873 45.4705 5.33337 47.9998V64.3465C5.33337 65.7609 5.89528 67.1175 6.89547 68.1177C7.89566 69.1179 9.25222 69.6798 10.6667 69.6798V53.3331V47.9998C10.6667 46.5853 11.2286 45.2288 12.2288 44.2286C13.229 43.2284 14.5856 42.6665 16 42.6665H65.9467C71.0862 42.6735 76.0132 44.7183 79.6474 48.3525C83.2815 51.9867 85.3263 56.9136 85.3334 62.0531V63.9998H80C78.8738 61.2534 76.7758 59.0179 74.1064 57.7197C71.437 56.4216 68.3831 56.1517 65.5274 56.9616C62.6717 57.7715 60.2141 59.6044 58.6237 62.1107C57.0332 64.617 56.4213 67.6211 56.9045 70.5498C57.3877 73.4785 58.9324 76.1268 61.2437 77.9893C63.5549 79.8518 66.4711 80.7981 69.4356 80.6477C72.4001 80.4973 75.2054 79.2606 77.3163 77.1737C79.4272 75.0868 80.6958 72.2957 80.88 69.3331H85.3334C86.7479 69.3331 88.1044 68.7712 89.1046 67.771C90.1048 66.7708 90.6667 65.4143 90.6667 63.9998V62.0531C90.656 56.2983 88.6399 50.7271 84.9653 46.2981C81.2907 41.8691 76.1874 38.8593 70.5334 37.7865ZM29.3334 37.3331H18.48C18.48 36.5065 18.72 35.6531 18.88 34.6665C19.3408 31.737 20.5431 28.9741 22.3727 26.6404C24.2024 24.3066 26.5985 22.4797 29.3334 21.3331V37.3331ZM34.6667 37.3331V20.2131C39.6452 19.5666 44.6943 20.6593 48.96 23.3065C54.7833 26.9336 59.8094 31.7056 63.7334 37.3331H34.6667ZM68.8 75.6798C67.4815 75.6798 66.1926 75.2888 65.0962 74.5563C63.9999 73.8237 63.1454 72.7825 62.6408 71.5643C62.1363 70.3462 62.0042 69.0057 62.2615 67.7125C62.5187 66.4193 63.1536 65.2314 64.086 64.2991C65.0183 63.3667 66.2062 62.7318 67.4994 62.4746C68.7926 62.2173 70.1331 62.3493 71.3513 62.8539C72.5694 63.3585 73.6106 64.213 74.3432 65.3093C75.0757 66.4057 75.4667 67.6946 75.4667 69.0131C75.4667 70.7812 74.7643 72.4769 73.5141 73.7272C72.2638 74.9774 70.5681 75.6798 68.8 75.6798Z" fill="black"/>
<path d="M37.7866 64C36.6604 61.2536 34.5624 59.0181 31.893 57.7199C29.2236 56.4218 26.1697 56.1519 23.314 56.9618C20.4583 57.7717 18.0007 59.6046 16.4103 62.1109C14.8198 64.6172 14.2079 67.6213 14.6911 70.55C15.1743 73.4788 16.719 76.127 19.0303 77.9895C21.3415 79.852 24.2577 80.7983 27.2222 80.6479C30.1867 80.4975 32.992 79.2608 35.1029 77.1739C37.2138 75.087 38.4824 72.2959 38.6666 69.3333H52.8C52.8 69.12 52.8 68.88 52.8 68.6667C52.7472 67.0934 52.9269 65.5209 53.3333 64H37.7866ZM26.6666 75.68C25.3481 75.68 24.0592 75.289 22.9628 74.5565C21.8665 73.8239 21.012 72.7827 20.5074 71.5646C20.0029 70.3464 19.8708 69.0059 20.1281 67.7127C20.3853 66.4195 21.0202 65.2316 21.9526 64.2993C22.8849 63.3669 24.0728 62.732 25.366 62.4748C26.6592 62.2175 27.9997 62.3496 29.2179 62.8541C30.436 63.3587 31.4772 64.2132 32.2098 65.3095C32.9423 66.4059 33.3333 67.6948 33.3333 69.0133C33.3333 70.7815 32.6309 72.4771 31.3807 73.7274C30.1304 74.9776 28.4348 75.68 26.6666 75.68Z" fill="black"/>
</g>
<defs>
<clipPath id="clip0_234_2283">
<rect width="96" height="96" fill="white"/>
</clipPath>
</defs>
</symbol>

<symbol id="clothes" viewBox="0 0 64 64">
<path d="M32 12C31.1725 11.9999 30.3654 12.2565 29.6899 12.7343C29.0143 13.2122 28.5036 13.8878 28.228 14.668C28.0386 15.1512 27.6687 15.5419 27.1965 15.7575C26.7243 15.973 26.1868 15.9965 25.6976 15.8231C25.2084 15.6496 24.8058 15.2928 24.5748 14.8279C24.3439 14.3631 24.3027 13.8266 24.46 13.332C24.8669 12.1828 25.531 11.1418 26.4017 10.2885C27.2723 9.43515 28.3265 8.7921 29.4836 8.40844C30.6408 8.02478 31.8703 7.91064 33.0783 8.07477C34.2863 8.23889 35.4408 8.67692 36.4537 9.3554C37.4665 10.0339 38.3109 10.9349 38.9224 11.9895C39.5338 13.0442 39.8961 14.2247 39.9816 15.4408C40.0671 16.6569 39.8736 17.8764 39.4158 19.0063C38.9579 20.1362 38.2479 21.1464 37.34 21.96L37.176 22.108C36.296 22.896 35.5 23.604 34.896 24.372C34.256 25.164 34.004 25.808 34.004 26.384C34.004 27.26 34.484 28.064 35.256 28.48L56.64 40C57.8892 40.6752 58.8776 41.7477 59.4488 43.0477C60.0201 44.3477 60.1416 45.8011 59.7942 47.1779C59.4468 48.5548 58.6502 49.7765 57.5306 50.6498C56.4109 51.5232 55.032 51.9983 53.612 52H10.38C8.95888 52 7.57842 51.5255 6.45758 50.6518C5.33675 49.7781 4.5397 48.5552 4.19287 47.1771C3.84603 45.7989 3.96926 44.3444 4.543 43.0442C5.11675 41.7441 6.10816 40.6727 7.36001 40L25.052 30.48C25.517 30.2475 26.0543 30.2052 26.55 30.362C27.0456 30.5189 27.4607 30.8627 27.7073 31.3204C27.9538 31.7781 28.0125 32.3139 27.8707 32.8141C27.729 33.3143 27.398 33.7396 26.948 34L9.25201 43.52C8.78307 43.7701 8.41132 44.17 8.19602 44.6559C7.98072 45.1418 7.93425 45.6857 8.06402 46.2011C8.19378 46.7165 8.49232 47.1736 8.91205 47.4996C9.33178 47.8256 9.84855 48.0018 10.38 48H53.62C54.1496 47.9982 54.6636 47.8202 55.0808 47.4939C55.498 47.1676 55.7947 46.7117 55.924 46.1981C56.0533 45.6845 56.0079 45.1425 55.795 44.6575C55.582 44.1726 55.2137 43.7723 54.748 43.52L33.36 32C32.3464 31.4529 31.4993 30.6424 30.9079 29.6539C30.3165 28.6655 30.0029 27.5358 30 26.384C30 24.536 30.848 23.028 31.76 21.88C32.592 20.836 33.632 19.908 34.456 19.172L34.672 18.98C35.2756 18.4395 35.7009 17.7285 35.8915 16.941C36.0821 16.1535 36.0291 15.3266 35.7394 14.57C35.4497 13.8133 34.9371 13.1624 34.2694 12.7035C33.6016 12.2446 32.8102 11.9992 32 12Z" fill="black"/>
</symbol>

<symbol id="computer" viewBox="0 0 64 64">
<path d="M57.6 2H40.4C39.2347 2.00526 38.1186 2.47052 37.2945 3.29454C36.4705 4.11857 36.0053 5.23467 36 6.4V10H7.2C5.8225 10.0053 4.50291 10.5548 3.52886 11.5289C2.55481 12.5029 2.00527 13.8225 2 15.2V44.8C2.00527 46.1775 2.55481 47.4971 3.52886 48.4711C4.50291 49.4452 5.8225 49.9947 7.2 50H20.48L19.4 58H17.72C17.1896 58 16.6809 58.2107 16.3058 58.5858C15.9307 58.9609 15.72 59.4696 15.72 60C15.72 60.5304 15.9307 61.0391 16.3058 61.4142C16.6809 61.7893 17.1896 62 17.72 62H38.28C38.8104 62 39.3191 61.7893 39.6942 61.4142C40.0693 61.0391 40.28 60.5304 40.28 60C40.28 59.4696 40.0693 58.9609 39.6942 58.5858C39.3191 58.2107 38.8104 58 38.28 58H36.56L35.2 50H48.8C50.1775 49.9947 51.4971 49.4452 52.4711 48.4711C53.4452 47.4971 53.9947 46.1775 54 44.8V15.2C53.9947 13.8225 53.4452 12.5029 52.4711 11.5289C51.4971 10.5548 50.1775 10.0053 48.8 10H40V6.4C40 6.29391 40.0421 6.19217 40.1172 6.11716C40.1922 6.04214 40.2939 6 40.4 6H57.6C57.7061 6 57.8078 6.04214 57.8828 6.11716C57.9579 6.19217 58 6.29391 58 6.4V53.6C58 53.7061 57.9579 53.8078 57.8828 53.8828C57.8078 53.9579 57.7061 54 57.6 54H42C41.4696 54 40.9609 54.2107 40.5858 54.5858C40.2107 54.9609 40 55.4696 40 56C40 56.5304 40.2107 57.0391 40.5858 57.4142C40.9609 57.7893 41.4696 58 42 58H57.6C58.7653 57.9947 59.8814 57.5295 60.7055 56.7055C61.5295 55.8814 61.9947 54.7653 62 53.6V6.4C61.9947 5.23467 61.5295 4.11857 60.7055 3.29454C59.8814 2.47052 58.7653 2.00526 57.6 2ZM32.5 58H23.44L24.52 50H31.16L32.5 58ZM50 15.2V44.8C50 44.9576 49.969 45.1136 49.9087 45.2592C49.8484 45.4048 49.76 45.5371 49.6485 45.6485C49.5371 45.76 49.4048 45.8484 49.2592 45.9087C49.1136 45.969 48.9576 46 48.8 46H7.2C6.88174 46 6.57652 45.8736 6.35147 45.6485C6.12643 45.4235 6 45.1183 6 44.8V15.2C6 14.8817 6.12643 14.5765 6.35147 14.3515C6.57652 14.1264 6.88174 14 7.2 14H48.8C48.9576 14 49.1136 14.031 49.2592 14.0913C49.4048 14.1517 49.5371 14.24 49.6485 14.3515C49.76 14.4629 49.8484 14.5952 49.9087 14.7408C49.969 14.8864 50 15.0424 50 15.2Z" fill="black"/>
</symbol>

<symbol id="household" viewBox="0 0 64 64">
<path d="M56 36C56.3054 35.9993 56.6067 35.9286 56.8805 35.7934C57.1544 35.6582 57.3937 35.462 57.58 35.22C57.77 34.9773 57.9014 34.694 57.9639 34.3922C58.0263 34.0903 58.0181 33.7782 57.94 33.48L49.94 3.48C49.8253 3.05382 49.5728 2.67757 49.2219 2.40987C48.871 2.14217 48.4414 1.99806 48 2H16C15.5485 1.98453 15.105 2.1224 14.7419 2.39114C14.3787 2.65989 14.1172 3.04367 14 3.48L6.00001 33.48C5.92188 33.7782 5.91372 34.0903 5.97617 34.3922C6.03862 34.694 6.16999 34.9773 6.36001 35.22C6.55243 35.4702 6.80134 35.6713 7.08638 35.8069C7.37142 35.9424 7.68449 36.0086 8.00001 36H22V44C21.4696 44 20.9609 44.2107 20.5858 44.5858C20.2107 44.9609 20 45.4696 20 46C20 46.5304 20.2107 47.0391 20.5858 47.4142C20.9609 47.7893 21.4696 48 22 48H26C26.5304 48 27.0392 47.7893 27.4142 47.4142C27.7893 47.0391 28 46.5304 28 46C28 45.4696 27.7893 44.9609 27.4142 44.5858C27.0392 44.2107 26.5304 44 26 44V36H30V52H26C23.8783 52 21.8434 52.8429 20.3432 54.3431C18.8429 55.8434 18 57.8783 18 60C18 60.5304 18.2107 61.0391 18.5858 61.4142C18.9609 61.7893 19.4696 62 20 62H44C44.5304 62 45.0392 61.7893 45.4142 61.4142C45.7893 61.0391 46 60.5304 46 60C46 57.8783 45.1572 55.8434 43.6569 54.3431C42.1566 52.8429 40.1217 52 38 52H34V36H56ZM41.46 58H22.54C22.8907 57.3925 23.395 56.888 24.0023 56.5369C24.6096 56.1859 25.2986 56.0007 26 56H38C38.7015 56.0007 39.3904 56.1859 39.9977 56.5369C40.605 56.888 41.1093 57.3925 41.46 58ZM17.54 6H46.46L51.26 24H12.74L17.54 6ZM11.68 28H52.32L53.4 32H10.6L11.68 28Z" fill="black"/>
</symbol>

<symbol id="interior" viewBox="0 0 60 60">
<path d="M20 45H13.89C11.5322 45 9.27102 44.0634 7.60382 42.3962C5.93662 40.729 5 38.4678 5 36.11V30C5 28.6739 5.52678 27.4021 6.46447 26.4645C7.40215 25.5268 8.67392 25 10 25C11.3261 25 12.5979 25.5268 13.5355 26.4645C14.4732 27.4021 15 28.6739 15 30V33C15 33.5304 15.2107 34.0391 15.5858 34.4142C15.9609 34.7893 16.4696 35 17 35H43C43.5304 35 44.0391 34.7893 44.4142 34.4142C44.7893 34.0391 45 33.5304 45 33V30C45 28.6739 45.5268 27.4021 46.4645 26.4645C47.4021 25.5268 48.6739 25 50 25C51.3261 25 52.5979 25.5268 53.5355 26.4645C54.4732 27.4021 55 28.6739 55 30V36.11C55 38.4678 54.0634 40.729 52.3962 42.3962C50.729 44.0634 48.4678 45 46.11 45H30" stroke="black" stroke-width="3" stroke-linecap="round"/>
<path d="M37.5 12.5C39.825 12.5 40.985 12.5 41.95 12.6925C43.89 13.0783 45.672 14.0307 47.0706 15.4294C48.4693 16.828 49.4217 18.61 49.8075 20.55C50 21.515 50 22.675 50 25M10 25C10 22.675 10 21.515 10.1925 20.55C10.5783 18.61 11.5307 16.828 12.9294 15.4294C14.328 14.0307 16.11 13.0783 18.05 12.6925C19.015 12.5 20.175 12.5 22.5 12.5H27.5M50 47.5V45M10 47.5V45" stroke="black" stroke-width="3" stroke-linecap="round"/>
</symbol>

<symbol id="kitchen" viewBox="0 0 64 64">
<g clip-path="url(#clip0_161_5929)">
<path d="M63.9994 27.2521C63.999 27.1999 63.9967 27.148 63.9915 27.0962C63.9906 27.0885 63.9891 27.0811 63.9884 27.0735C63.9835 27.0316 63.9774 26.99 63.9692 26.9486C63.9654 26.928 63.9605 26.9079 63.9559 26.8876C63.9494 26.8596 63.9423 26.8319 63.9345 26.8042C63.9281 26.7821 63.9217 26.7602 63.9146 26.7385C63.9059 26.712 63.8959 26.6859 63.8859 26.6597C63.878 26.6396 63.871 26.6194 63.8624 26.5997C63.844 26.557 63.8237 26.515 63.8018 26.4739C63.7943 26.4597 63.7856 26.4464 63.7776 26.4326C63.7605 26.4029 63.7431 26.3734 63.7243 26.3447C63.7144 26.3299 63.704 26.3152 63.6936 26.3007C63.6748 26.2737 63.655 26.2474 63.6344 26.2214C63.6236 26.208 63.6128 26.1946 63.6017 26.1815C63.5793 26.155 63.5558 26.1292 63.5314 26.1041C63.5206 26.0931 63.5105 26.0819 63.4995 26.071C63.4709 26.0429 63.4408 26.0157 63.4099 25.9896C63.4024 25.9831 63.3951 25.9761 63.3874 25.9697C63.351 25.9401 63.3134 25.9115 63.2741 25.8845L63.2639 25.8775C63.2627 25.8766 63.2615 25.8759 63.2604 25.8751L62.2461 25.178C58.1815 22.3837 53.5994 20.5775 48.7896 19.8491V14.924C48.7896 13.9994 48.04 13.2496 47.1152 13.2496H40.7993C39.8745 13.2496 39.1249 13.9994 39.1249 14.924V19.8367C34.0519 20.5896 29.2546 22.5402 25.0386 25.5901H4.92788C2.21062 25.5902 0 27.8 0 30.5165C0 31.8331 0.5125 33.0706 1.443 34.0011C2.37363 34.9319 3.61125 35.4445 4.92788 35.4445H23.9142V39.9504C23.9142 45.9055 28.7599 50.7505 34.716 50.7505H53.1984C59.1545 50.7505 64.0001 45.9055 64.0001 39.9504V27.2647C64 27.2605 63.9994 27.2564 63.9994 27.2521ZM23.9141 32.0956H4.92788C4.50588 32.0955 4.10938 31.9314 3.81125 31.633C3.513 31.335 3.349 30.9385 3.349 30.5165C3.349 29.6467 4.05725 28.9392 4.928 28.9392H23.9144V32.0956H23.9141ZM42.4735 16.5986H45.4406V19.4836H42.4735V16.5986ZM43.9152 22.8325C48.224 22.8325 52.4211 23.7767 56.2656 25.5902H31.5769C35.4053 23.7755 39.5906 22.8325 43.9152 22.8325ZM60.6511 39.9504C60.6511 44.0587 57.3078 47.4014 53.1982 47.4014H34.7159C30.6064 47.4014 27.263 44.0587 27.263 39.9501V35.4442H38.3812C39.306 35.4442 40.0556 34.6945 40.0556 33.7699C40.0556 32.8452 39.306 32.0955 38.3812 32.0955H27.263V28.9392H60.6511V39.9504Z" fill="black"/>
<path d="M44.0307 32.0955H43.3492C42.4245 32.0955 41.6749 32.8453 41.6749 33.7699C41.6749 34.6945 42.4245 35.4443 43.3492 35.4443H44.0307C44.9555 35.4443 45.7051 34.6945 45.7051 33.7699C45.7052 32.8453 44.9555 32.0955 44.0307 32.0955Z" fill="black"/>
</g>
<defs>
<clipPath id="clip0_161_5929">
<rect width="64" height="64" fill="white"/>
</clipPath>
</defs>
</symbol>

<symbol id="office" viewBox="0 0 64 64">
<path d="M50.6666 32.6173L53.2122 30.0717C56.8485 26.4354 58.6666 24.6173 58.6666 22.358C58.6666 20.0988 56.8485 18.2807 53.2122 14.6445L49.3554 10.7877C45.7194 7.15144 43.9013 5.33334 41.6418 5.33334C39.3826 5.33334 37.5645 7.15144 33.9282 10.7877L10.7876 33.9283C7.15142 37.5645 5.33331 39.3827 5.33331 41.6419C5.33331 43.9013 7.15142 45.7195 10.7876 49.3555L14.6444 53.2123C18.2806 56.8485 20.0988 58.6667 22.358 58.6667C24.6173 58.6667 26.4354 56.8485 30.0717 53.2123L43.284 40" stroke="#1C274C" stroke-width="3.75" stroke-linecap="round"/>
<path d="M22.5717 22.5719L26.3429 26.3432" stroke="#1C274C" stroke-width="3.75" stroke-linecap="round"/>
<path d="M33.8853 11.2581L37.6565 15.0294" stroke="#1C274C" stroke-width="3.75" stroke-linecap="round"/>
<path d="M11.2584 33.8859L15.0297 37.6571" stroke="#1C274C" stroke-width="3.75" stroke-linecap="round"/>
<path d="M16.9153 28.2288L22.5722 33.8856" stroke="#1C274C" stroke-width="3.75" stroke-linecap="round"/>
<path d="M28.2285 16.915L33.8853 22.5719" stroke="#1C274C" stroke-width="3.75" stroke-linecap="round"/>
</symbol>

<symbol id="sanitary" viewBox="0 0 64 64">
<path d="M32 54.6667C33.7315 54.6667 35.6373 54.6216 37.5952 54.548C38.2821 54.5221 38.6253 54.5093 39.2141 54.4496C47.9547 53.5645 55.4061 45.8277 55.9624 37.0605C56 36.4699 56 35.9424 56 34.8872C56 34.6824 56 34.58 55.9944 34.4936C55.9075 33.1571 54.8429 32.0925 53.5064 32.0056C53.42 32 53.3176 32 53.1128 32M10.8871 32C10.6824 32 10.5801 32 10.4936 32.0056C9.1572 32.0925 8.09253 33.1571 8.00563 34.4936C8 34.58 8 34.6824 8 34.8872C8 35.9424 8 36.4699 8.03749 37.0605C8.51888 44.6453 14.1609 51.4589 21.3333 53.732" stroke="#1C274C" stroke-width="3.75" stroke-linecap="round"/>
<path d="M16 53.3333L13.3333 58.6667" stroke="#1C274C" stroke-width="3.75" stroke-linecap="round"/>
<path d="M48 53.3333L50.6667 58.6667" stroke="#1C274C" stroke-width="3.75" stroke-linecap="round"/>
<path d="M5.33334 32H37.3333M58.6667 32H48" stroke="#1C274C" stroke-width="3.75" stroke-linecap="round"/>
<path d="M6 34.6667C6 35.7712 6.89544 36.6667 8 36.6667C9.10456 36.6667 10 35.7712 10 34.6667H6ZM16.9216 23.3108L15.0608 24.044C15.2592 24.5476 15.6533 24.9492 16.1529 25.1572C16.6526 25.3652 17.2153 25.3618 17.7124 25.1478L16.9216 23.3108ZM32.8168 16.4679L33.6077 18.305C34.6 17.8778 35.0736 16.7398 34.6776 15.7347L32.8168 16.4679ZM10 34.6667V11.6938H6V34.6667H10ZM14.3604 7.33333C16.1434 7.33333 17.7468 8.41887 18.409 10.0743L22.1229 8.58877C20.8533 5.41466 17.7791 3.33333 14.3604 3.33333V7.33333ZM10 11.6938C10 9.28557 11.9522 7.33333 14.3604 7.33333V3.33333C9.74309 3.33333 6 7.07642 6 11.6938H10ZM18.409 10.0743L19.42 12.6018L23.1339 11.1162L22.1229 8.58877L18.409 10.0743ZM18.7823 22.5776C18.1378 20.9419 18.097 19.0424 18.8187 17.2654L15.1126 15.7604C13.9918 18.5204 14.0522 21.4844 15.0608 24.044L18.7823 22.5776ZM32.0261 14.6309L16.1307 21.4738L17.7124 25.1478L33.6077 18.305L32.0261 14.6309ZM27.4197 13.5134C29.0771 14.2215 30.312 15.5664 30.9563 17.2011L34.6776 15.7347C33.6688 13.1741 31.6987 10.9917 28.9912 9.83501L27.4197 13.5134ZM18.8187 17.2654C19.4965 15.5963 20.7154 14.3568 22.1523 13.6572L20.4015 10.0608C18.089 11.1866 16.1667 13.1646 15.1126 15.7604L18.8187 17.2654ZM22.1523 13.6572C23.7721 12.8688 25.6668 12.7646 27.4197 13.5134L28.9912 9.83501C26.117 8.60714 23.01 8.79095 20.4015 10.0608L22.1523 13.6572Z" fill="#1C274C"/>
</symbol>

<symbol id="smartphones" viewBox="0 0 64 64">
<path d="M53.3333 37.3333C53.3333 47.3899 53.3333 52.4184 50.2091 55.5424C47.0851 58.6667 42.0565 58.6667 32 58.6667C21.9434 58.6667 16.9151 58.6667 13.7908 55.5424C10.6667 52.4184 10.6667 47.3899 10.6667 37.3333V26.6667C10.6667 16.61 10.6667 11.5817 13.7908 8.45752C16.9151 5.33333 21.9434 5.33333 32 5.33333C42.0565 5.33333 47.0851 5.33333 50.2091 8.45752C53.3333 11.5817 53.3333 16.61 53.3333 26.6667" stroke="#1C274C" stroke-width="3.75" stroke-linecap="round"/>
<path d="M40 50.6667H24" stroke="#1C274C" stroke-width="3.75" stroke-linecap="round"/>
</symbol>

<symbol id="sport" viewBox="0 0 64 64">
<path d="M51.8299 64H44.3736C43.5085 64 42.8071 63.2986 42.8071 62.4335V56.4683H21.1929V62.4335C21.1929 63.2986 20.4915 64 19.6264 64H12.1701C11.305 64 10.6036 63.2986 10.6036 62.4335V61.0748H4.71395C3.84886 61.0748 3.14746 60.3734 3.14746 59.5083V43.8676C3.14746 43.0025 3.84886 42.3011 4.71395 42.3011H10.6034V40.9426C10.6034 40.0775 11.3048 39.3761 12.1699 39.3761H19.6262C20.4913 39.3761 21.1927 40.0775 21.1927 40.9426V46.9078H42.8071V40.9426C42.8071 40.0775 43.5085 39.3761 44.3736 39.3761H51.8299C52.695 39.3761 53.3964 40.0775 53.3964 40.9426V42.3011H59.2858C60.1509 42.3011 60.8523 43.0025 60.8523 43.8676V59.5081C60.8523 60.3732 60.1509 61.0746 59.2858 61.0746H53.3964V62.4333C53.3964 63.2986 52.6952 64 51.8299 64ZM45.9403 60.867H50.2636V42.5091H45.9403V60.867ZM13.7366 60.867H18.0599V42.5091H13.7366V60.867ZM53.3964 57.9416H57.7193V45.4341H53.3964V57.9416ZM6.28044 57.9416H10.6034V45.4341H6.28044V57.9416ZM21.1929 53.3353H42.8073V50.0408H21.1929V53.3353ZM28.4794 43.7396C28.2188 43.7396 27.9546 43.6746 27.7114 43.5375C26.9577 43.1126 26.6914 42.157 27.1162 41.4035C29.911 36.4472 33.6843 32.2568 38.1235 29.032C36.1861 26.3488 33.9729 23.907 31.5284 21.7425C25.4545 28.2832 17.1646 32.6876 7.95365 33.8043C8.15769 34.6285 8.40461 35.4429 8.6946 36.2457C8.98852 37.0593 8.56733 37.9573 7.75353 38.2512C6.93935 38.5453 6.04195 38.1237 5.74803 37.3099C4.65717 34.2897 4.104 31.1225 4.104 27.8959C4.104 12.5139 16.6181 0 32.0001 0C47.3819 0 59.8958 12.5139 59.8958 27.8959C59.8958 30.6723 59.4838 33.418 58.671 36.0573C58.4162 36.8842 57.5392 37.3475 56.7129 37.0933C55.8859 36.8388 55.4223 35.9621 55.6768 35.1352C56.3974 32.7951 56.7628 30.3594 56.7628 27.8959C56.7628 26.9425 56.7087 26.0018 56.6034 25.0762C51.5376 25.663 46.7339 27.3321 42.4713 29.9053C43.3942 31.3747 44.2369 32.892 44.992 34.4485C45.3695 35.2269 45.0446 36.164 44.2663 36.5415C43.4879 36.9185 42.5506 36.5942 42.1733 35.8157C41.4736 34.3733 40.7045 32.9791 39.8703 31.6369C35.8309 34.5919 32.3952 38.4202 29.8456 42.9422C29.5573 43.4527 29.0263 43.7396 28.4794 43.7396ZM13.0412 11.9823C9.42028 16.289 7.23698 21.8422 7.23698 27.8959C7.23698 28.8424 7.29064 29.7833 7.39735 30.7154C15.8676 29.7326 23.4995 25.7253 29.1076 19.7476C24.3893 16.1331 18.9467 13.4746 13.0412 11.9823ZM33.5482 19.3849C36.2161 21.7441 38.6267 24.4102 40.717 27.3039C45.3378 24.4886 50.5503 22.6519 56.0504 21.9867C54.0949 14.0299 48.2832 7.57203 40.7186 4.71729C39.3826 10.1699 36.8973 15.1427 33.5482 19.3849ZM15.5319 9.41775C21.1482 11.0739 26.4805 13.7955 31.1344 17.389C34.2225 13.4601 36.5065 8.85048 37.7176 3.79933C35.882 3.36384 33.967 3.13298 32.0001 3.13298C25.683 3.13298 19.9113 5.51013 15.5319 9.41775Z" fill="black"/>
</symbol>
</svg>
