<svg width="60" height="60" viewBox="0 0 60 60" fill="none" xmlns="http://www.w3.org/2000/svg">
<path d="M20 45H13.89C11.5322 45 9.27102 44.0634 7.60382 42.3962C5.93662 40.729 5 38.4678 5 36.11V30C5 28.6739 5.52678 27.4021 6.46447 26.4645C7.40215 25.5268 8.67392 25 10 25C11.3261 25 12.5979 25.5268 13.5355 26.4645C14.4732 27.4021 15 28.6739 15 30V33C15 33.5304 15.2107 34.0391 15.5858 34.4142C15.9609 34.7893 16.4696 35 17 35H43C43.5304 35 44.0391 34.7893 44.4142 34.4142C44.7893 34.0391 45 33.5304 45 33V30C45 28.6739 45.5268 27.4021 46.4645 26.4645C47.4021 25.5268 48.6739 25 50 25C51.3261 25 52.5979 25.5268 53.5355 26.4645C54.4732 27.4021 55 28.6739 55 30V36.11C55 38.4678 54.0634 40.729 52.3962 42.3962C50.729 44.0634 48.4678 45 46.11 45H30" stroke="black" stroke-width="3" stroke-linecap="round"/>
<path d="M37.5 12.5C39.825 12.5 40.985 12.5 41.95 12.6925C43.89 13.0783 45.672 14.0307 47.0706 15.4294C48.4693 16.828 49.4217 18.61 49.8075 20.55C50 21.515 50 22.675 50 25M10 25C10 22.675 10 21.515 10.1925 20.55C10.5783 18.61 11.5307 16.828 12.9294 15.4294C14.328 14.0307 16.11 13.0783 18.05 12.6925C19.015 12.5 20.175 12.5 22.5 12.5H27.5M50 47.5V45M10 47.5V45" stroke="black" stroke-width="3" stroke-linecap="round"/>
</svg>
