<svg width="64" height="64" viewBox="0 0 64 64" fill="none" xmlns="http://www.w3.org/2000/svg">
<g clip-path="url(#clip0_161_5929)">
<path d="M63.9994 27.2521C63.999 27.1999 63.9967 27.148 63.9915 27.0962C63.9906 27.0885 63.9891 27.0811 63.9884 27.0735C63.9835 27.0316 63.9774 26.99 63.9692 26.9486C63.9654 26.928 63.9605 26.9079 63.9559 26.8876C63.9494 26.8596 63.9423 26.8319 63.9345 26.8042C63.9281 26.7821 63.9217 26.7602 63.9146 26.7385C63.9059 26.712 63.8959 26.6859 63.8859 26.6597C63.878 26.6396 63.871 26.6194 63.8624 26.5997C63.844 26.557 63.8237 26.515 63.8018 26.4739C63.7943 26.4597 63.7856 26.4464 63.7776 26.4326C63.7605 26.4029 63.7431 26.3734 63.7243 26.3447C63.7144 26.3299 63.704 26.3152 63.6936 26.3007C63.6748 26.2737 63.655 26.2474 63.6344 26.2214C63.6236 26.208 63.6128 26.1946 63.6017 26.1815C63.5793 26.155 63.5558 26.1292 63.5314 26.1041C63.5206 26.0931 63.5105 26.0819 63.4995 26.071C63.4709 26.0429 63.4408 26.0157 63.4099 25.9896C63.4024 25.9831 63.3951 25.9761 63.3874 25.9697C63.351 25.9401 63.3134 25.9115 63.2741 25.8845L63.2639 25.8775C63.2627 25.8766 63.2615 25.8759 63.2604 25.8751L62.2461 25.178C58.1815 22.3837 53.5994 20.5775 48.7896 19.8491V14.924C48.7896 13.9994 48.04 13.2496 47.1152 13.2496H40.7993C39.8745 13.2496 39.1249 13.9994 39.1249 14.924V19.8367C34.0519 20.5896 29.2546 22.5402 25.0386 25.5901H4.92788C2.21062 25.5902 0 27.8 0 30.5165C0 31.8331 0.5125 33.0706 1.443 34.0011C2.37363 34.9319 3.61125 35.4445 4.92788 35.4445H23.9142V39.9504C23.9142 45.9055 28.7599 50.7505 34.716 50.7505H53.1984C59.1545 50.7505 64.0001 45.9055 64.0001 39.9504V27.2647C64 27.2605 63.9994 27.2564 63.9994 27.2521ZM23.9141 32.0956H4.92788C4.50588 32.0955 4.10938 31.9314 3.81125 31.633C3.513 31.335 3.349 30.9385 3.349 30.5165C3.349 29.6467 4.05725 28.9392 4.928 28.9392H23.9144V32.0956H23.9141ZM42.4735 16.5986H45.4406V19.4836H42.4735V16.5986ZM43.9152 22.8325C48.224 22.8325 52.4211 23.7767 56.2656 25.5902H31.5769C35.4053 23.7755 39.5906 22.8325 43.9152 22.8325ZM60.6511 39.9504C60.6511 44.0587 57.3078 47.4014 53.1982 47.4014H34.7159C30.6064 47.4014 27.263 44.0587 27.263 39.9501V35.4442H38.3812C39.306 35.4442 40.0556 34.6945 40.0556 33.7699C40.0556 32.8452 39.306 32.0955 38.3812 32.0955H27.263V28.9392H60.6511V39.9504Z" fill="black"/>
<path d="M44.0307 32.0955H43.3492C42.4245 32.0955 41.6749 32.8453 41.6749 33.7699C41.6749 34.6945 42.4245 35.4443 43.3492 35.4443H44.0307C44.9555 35.4443 45.7051 34.6945 45.7051 33.7699C45.7052 32.8453 44.9555 32.0955 44.0307 32.0955Z" fill="black"/>
</g>
<defs>
<clipPath id="clip0_161_5929">
<rect width="64" height="64" fill="white"/>
</clipPath>
</defs>
</svg>
