<svg width="64" height="64" viewBox="0 0 64 64" fill="none" xmlns="http://www.w3.org/2000/svg">
<path d="M50.6666 32.6173L53.2122 30.0717C56.8485 26.4354 58.6666 24.6173 58.6666 22.358C58.6666 20.0988 56.8485 18.2807 53.2122 14.6445L49.3554 10.7877C45.7194 7.15144 43.9013 5.33334 41.6418 5.33334C39.3826 5.33334 37.5645 7.15144 33.9282 10.7877L10.7876 33.9283C7.15142 37.5645 5.33331 39.3827 5.33331 41.6419C5.33331 43.9013 7.15142 45.7195 10.7876 49.3555L14.6444 53.2123C18.2806 56.8485 20.0988 58.6667 22.358 58.6667C24.6173 58.6667 26.4354 56.8485 30.0717 53.2123L43.284 40" stroke="#1C274C" stroke-width="3.75" stroke-linecap="round"/>
<path d="M22.5717 22.5719L26.3429 26.3432" stroke="#1C274C" stroke-width="3.75" stroke-linecap="round"/>
<path d="M33.8853 11.2581L37.6565 15.0294" stroke="#1C274C" stroke-width="3.75" stroke-linecap="round"/>
<path d="M11.2584 33.8859L15.0297 37.6571" stroke="#1C274C" stroke-width="3.75" stroke-linecap="round"/>
<path d="M16.9153 28.2288L22.5722 33.8856" stroke="#1C274C" stroke-width="3.75" stroke-linecap="round"/>
<path d="M28.2285 16.915L33.8853 22.5719" stroke="#1C274C" stroke-width="3.75" stroke-linecap="round"/>
</svg>
