<svg width="64" height="64" viewBox="0 0 64 64" fill="none" xmlns="http://www.w3.org/2000/svg">
<path d="M32 54.6667C33.7315 54.6667 35.6373 54.6216 37.5952 54.548C38.2821 54.5221 38.6253 54.5093 39.2141 54.4496C47.9547 53.5645 55.4061 45.8277 55.9624 37.0605C56 36.4699 56 35.9424 56 34.8872C56 34.6824 56 34.58 55.9944 34.4936C55.9075 33.1571 54.8429 32.0925 53.5064 32.0056C53.42 32 53.3176 32 53.1128 32M10.8871 32C10.6824 32 10.5801 32 10.4936 32.0056C9.1572 32.0925 8.09253 33.1571 8.00563 34.4936C8 34.58 8 34.6824 8 34.8872C8 35.9424 8 36.4699 8.03749 37.0605C8.51888 44.6453 14.1609 51.4589 21.3333 53.732" stroke="#1C274C" stroke-width="3.75" stroke-linecap="round"/>
<path d="M16 53.3333L13.3333 58.6667" stroke="#1C274C" stroke-width="3.75" stroke-linecap="round"/>
<path d="M48 53.3333L50.6667 58.6667" stroke="#1C274C" stroke-width="3.75" stroke-linecap="round"/>
<path d="M5.33334 32H37.3333M58.6667 32H48" stroke="#1C274C" stroke-width="3.75" stroke-linecap="round"/>
<path d="M6 34.6667C6 35.7712 6.89544 36.6667 8 36.6667C9.10456 36.6667 10 35.7712 10 34.6667H6ZM16.9216 23.3108L15.0608 24.044C15.2592 24.5476 15.6533 24.9492 16.1529 25.1572C16.6526 25.3652 17.2153 25.3618 17.7124 25.1478L16.9216 23.3108ZM32.8168 16.4679L33.6077 18.305C34.6 17.8778 35.0736 16.7398 34.6776 15.7347L32.8168 16.4679ZM10 34.6667V11.6938H6V34.6667H10ZM14.3604 7.33333C16.1434 7.33333 17.7468 8.41887 18.409 10.0743L22.1229 8.58877C20.8533 5.41466 17.7791 3.33333 14.3604 3.33333V7.33333ZM10 11.6938C10 9.28557 11.9522 7.33333 14.3604 7.33333V3.33333C9.74309 3.33333 6 7.07642 6 11.6938H10ZM18.409 10.0743L19.42 12.6018L23.1339 11.1162L22.1229 8.58877L18.409 10.0743ZM18.7823 22.5776C18.1378 20.9419 18.097 19.0424 18.8187 17.2654L15.1126 15.7604C13.9918 18.5204 14.0522 21.4844 15.0608 24.044L18.7823 22.5776ZM32.0261 14.6309L16.1307 21.4738L17.7124 25.1478L33.6077 18.305L32.0261 14.6309ZM27.4197 13.5134C29.0771 14.2215 30.312 15.5664 30.9563 17.2011L34.6776 15.7347C33.6688 13.1741 31.6987 10.9917 28.9912 9.83501L27.4197 13.5134ZM18.8187 17.2654C19.4965 15.5963 20.7154 14.3568 22.1523 13.6572L20.4015 10.0608C18.089 11.1866 16.1667 13.1646 15.1126 15.7604L18.8187 17.2654ZM22.1523 13.6572C23.7721 12.8688 25.6668 12.7646 27.4197 13.5134L28.9912 9.83501C26.117 8.60714 23.01 8.79095 20.4015 10.0608L22.1523 13.6572Z" fill="#1C274C"/>
</svg>
