<svg width="64" height="64" viewBox="0 0 64 64" fill="none" xmlns="http://www.w3.org/2000/svg">
<path d="M51.8299 64H44.3736C43.5085 64 42.8071 63.2986 42.8071 62.4335V56.4683H21.1929V62.4335C21.1929 63.2986 20.4915 64 19.6264 64H12.1701C11.305 64 10.6036 63.2986 10.6036 62.4335V61.0748H4.71395C3.84886 61.0748 3.14746 60.3734 3.14746 59.5083V43.8676C3.14746 43.0025 3.84886 42.3011 4.71395 42.3011H10.6034V40.9426C10.6034 40.0775 11.3048 39.3761 12.1699 39.3761H19.6262C20.4913 39.3761 21.1927 40.0775 21.1927 40.9426V46.9078H42.8071V40.9426C42.8071 40.0775 43.5085 39.3761 44.3736 39.3761H51.8299C52.695 39.3761 53.3964 40.0775 53.3964 40.9426V42.3011H59.2858C60.1509 42.3011 60.8523 43.0025 60.8523 43.8676V59.5081C60.8523 60.3732 60.1509 61.0746 59.2858 61.0746H53.3964V62.4333C53.3964 63.2986 52.6952 64 51.8299 64ZM45.9403 60.867H50.2636V42.5091H45.9403V60.867ZM13.7366 60.867H18.0599V42.5091H13.7366V60.867ZM53.3964 57.9416H57.7193V45.4341H53.3964V57.9416ZM6.28044 57.9416H10.6034V45.4341H6.28044V57.9416ZM21.1929 53.3353H42.8073V50.0408H21.1929V53.3353ZM28.4794 43.7396C28.2188 43.7396 27.9546 43.6746 27.7114 43.5375C26.9577 43.1126 26.6914 42.157 27.1162 41.4035C29.911 36.4472 33.6843 32.2568 38.1235 29.032C36.1861 26.3488 33.9729 23.907 31.5284 21.7425C25.4545 28.2832 17.1646 32.6876 7.95365 33.8043C8.15769 34.6285 8.40461 35.4429 8.6946 36.2457C8.98852 37.0593 8.56733 37.9573 7.75353 38.2512C6.93935 38.5453 6.04195 38.1237 5.74803 37.3099C4.65717 34.2897 4.104 31.1225 4.104 27.8959C4.104 12.5139 16.6181 0 32.0001 0C47.3819 0 59.8958 12.5139 59.8958 27.8959C59.8958 30.6723 59.4838 33.418 58.671 36.0573C58.4162 36.8842 57.5392 37.3475 56.7129 37.0933C55.8859 36.8388 55.4223 35.9621 55.6768 35.1352C56.3974 32.7951 56.7628 30.3594 56.7628 27.8959C56.7628 26.9425 56.7087 26.0018 56.6034 25.0762C51.5376 25.663 46.7339 27.3321 42.4713 29.9053C43.3942 31.3747 44.2369 32.892 44.992 34.4485C45.3695 35.2269 45.0446 36.164 44.2663 36.5415C43.4879 36.9185 42.5506 36.5942 42.1733 35.8157C41.4736 34.3733 40.7045 32.9791 39.8703 31.6369C35.8309 34.5919 32.3952 38.4202 29.8456 42.9422C29.5573 43.4527 29.0263 43.7396 28.4794 43.7396ZM13.0412 11.9823C9.42028 16.289 7.23698 21.8422 7.23698 27.8959C7.23698 28.8424 7.29064 29.7833 7.39735 30.7154C15.8676 29.7326 23.4995 25.7253 29.1076 19.7476C24.3893 16.1331 18.9467 13.4746 13.0412 11.9823ZM33.5482 19.3849C36.2161 21.7441 38.6267 24.4102 40.717 27.3039C45.3378 24.4886 50.5503 22.6519 56.0504 21.9867C54.0949 14.0299 48.2832 7.57203 40.7186 4.71729C39.3826 10.1699 36.8973 15.1427 33.5482 19.3849ZM15.5319 9.41775C21.1482 11.0739 26.4805 13.7955 31.1344 17.389C34.2225 13.4601 36.5065 8.85048 37.7176 3.79933C35.882 3.36384 33.967 3.13298 32.0001 3.13298C25.683 3.13298 19.9113 5.51013 15.5319 9.41775Z" fill="black"/>
</svg>
